<svg xmlns="http://www.w3.org/2000/svg" version="1.1" xmlns:xlink="http://www.w3.org/1999/xlink" xmlns:svgjs="http://svgjs.dev/svgjs" width="1152" height="560" preserveAspectRatio="none" viewBox="0 0 1152 560"><g mask="url(&quot;#SvgjsMask1475&quot;)" fill="none"><rect width="1152" height="560" x="0" y="0" fill="url(&quot;#SvgjsLinearGradient1476&quot;)"></rect><path d="M0 0L85.57 0L0 168.67z" fill="rgba(255, 255, 255, .1)"></path><path d="M0 168.67L85.57 0L265.73 0L0 371.28z" fill="rgba(255, 255, 255, .075)"></path><path d="M0 371.28L265.73 0L721.8199999999999 0L0 432.82z" fill="rgba(255, 255, 255, .05)"></path><path d="M0 432.82L721.8199999999999 0L853.7399999999999 0L0 468.71z" fill="rgba(255, 255, 255, .025)"></path><path d="M1152 560L914.1 560L1152 527.53z" fill="rgba(0, 0, 0, .1)"></path><path d="M1152 527.53L914.1 560L589.6600000000001 560L1152 296.71999999999997z" fill="rgba(0, 0, 0, .075)"></path><path d="M1152 296.72L589.66 560L291.54999999999995 560L1152 285.89000000000004z" fill="rgba(0, 0, 0, .05)"></path><path d="M1152 285.89000000000004L291.54999999999995 560L279.17999999999995 560L1152 196.57000000000005z" fill="rgba(0, 0, 0, .025)"></path></g><defs><mask id="SvgjsMask1475"><rect width="1152" height="560" fill="#ffffff"></rect></mask><linearGradient x1="0%" y1="50%" x2="100%" y2="50%" gradientUnits="userSpaceOnUse" id="SvgjsLinearGradient1476"><stop stop-color="#0e2a47" offset="0"></stop><stop stop-color="rgba(91, 108, 218, 1)" offset="1"></stop></linearGradient></defs></svg>